<?xml version="1.0" standalone="no"?>
<!DOCTYPE svg PUBLIC "-//W3C//DTD SVG 20010904//EN"
 "http://www.w3.org/TR/2001/REC-SVG-20010904/DTD/svg10.dtd">
<svg version="1.0" xmlns="http://www.w3.org/2000/svg"
 width="512.000000pt" height="512.000000pt" viewBox="0 0 512.000000 512.000000"
 preserveAspectRatio="xMidYMid meet">

<g transform="translate(0.000000,512.000000) scale(0.100000,-0.100000)"
fill="#000000" stroke="none">
<path d="M3005 5096 c-59 -27 -77 -46 -104 -106 -19 -42 -21 -65 -21 -360 0
-175 4 -330 10 -349 13 -47 47 -93 88 -122 27 -18 52 -25 106 -27 67 -4 74 -2
120 30 90 61 91 62 94 448 3 379 1 394 -69 453 -70 60 -144 71 -224 33z m130
-90 c64 -27 66 -39 63 -397 l-3 -321 -33 -29 c-56 -50 -133 -36 -167 31 -12
24 -15 83 -15 330 0 335 3 354 63 384 40 19 49 20 92 2z"/>
<path d="M1835 4551 c-72 -32 -125 -113 -125 -191 0 -78 15 -98 254 -338 127
-129 248 -243 270 -254 24 -12 58 -19 91 -19 160 0 258 164 182 306 -26 50
-467 482 -509 500 -50 20 -114 19 -163 -4z m133 -95 c15 -8 125 -113 245 -233
l217 -219 0 -48 c0 -39 -5 -53 -29 -77 -24 -24 -38 -29 -77 -29 l-47 0 -224
222 c-242 241 -259 265 -233 329 15 35 63 69 98 69 13 0 35 -6 50 -14z"/>
<path d="M4190 4558 c-46 -13 -493 -453 -521 -513 -34 -74 -19 -176 34 -233
53 -57 157 -80 232 -52 43 16 493 465 516 515 49 105 -3 234 -113 279 -42 18
-96 19 -148 4z m131 -111 c42 -28 58 -80 40 -124 -7 -16 -112 -129 -235 -251
l-222 -222 -45 0 c-86 1 -135 82 -95 158 20 37 414 427 451 446 41 22 66 20
106 -7z"/>
<path d="M212 4251 c-57 -10 -120 -56 -150 -111 -19 -37 -23 -56 -20 -106 5
-77 38 -131 105 -171 l48 -28 341 -3 340 -3 267 -1456 c296 -1613 273 -1516
365 -1570 45 -27 54 -28 203 -32 l157 -3 -29 -62 c-182 -391 207 -817 617
-676 159 55 290 204 324 367 24 115 9 212 -57 360 -4 10 58 13 291 13 163 0
296 -2 296 -5 0 -3 -9 -23 -19 -43 -47 -91 -62 -218 -40 -324 52 -251 305
-428 557 -390 311 48 504 362 402 656 -11 33 -27 70 -35 83 l-15 23 173 0
c212 0 256 10 314 73 99 107 68 264 -64 331 -18 9 -39 16 -48 16 -11 0 -15 6
-11 18 6 21 346 1597 346 1605 0 3 19 16 43 30 46 27 87 89 87 131 0 21 5 26
23 26 44 0 74 59 45 88 -7 7 -24 12 -39 12 -23 0 -27 5 -32 40 -6 50 -45 102
-90 124 -32 15 -182 16 -1766 16 -1376 0 -1733 3 -1736 13 -3 6 -38 193 -79
415 -46 251 -81 416 -93 440 -26 49 -86 90 -152 102 -60 11 -800 12 -869 1z
m912 -133 c32 -33 32 -35 116 -498 328 -1818 457 -2503 475 -2516 16 -12 259
-14 1421 -14 1390 0 1402 0 1427 -20 38 -30 52 -80 33 -123 -28 -67 -44 -72
-289 -75 l-220 -3 -43 31 c-89 64 -168 92 -268 98 -139 7 -249 -25 -341 -98
l-38 -30 -378 0 -379 0 -65 45 c-96 65 -181 88 -303 83 -112 -6 -179 -28 -271
-89 l-59 -39 -158 0 c-88 0 -175 5 -195 10 -79 22 -54 -88 -353 1544 -150 818
-278 1492 -285 1499 -9 9 -109 13 -379 17 -219 3 -373 9 -383 15 -47 30 -63
101 -32 145 35 51 21 49 491 50 l444 0 32 -32z m3751 -963 c14 -13 25 -29 25
-35 0 -7 -533 -10 -1729 -10 l-1729 0 -6 23 c-3 12 -6 28 -6 35 0 9 349 12
1710 12 l1711 0 24 -25z m25 -169 c0 -8 -9 -24 -19 -37 l-19 -24 -1696 -3
-1696 -2 0 24 c0 13 -3 31 -6 40 -6 15 150 16 1715 16 1462 0 1721 -2 1721
-14z m-2686 -577 l26 -31 0 -348 0 -348 -26 -31 c-21 -26 -33 -31 -67 -31 -45
1 -67 13 -85 47 -9 15 -12 123 -12 363 0 410 -1 407 97 409 34 1 46 -4 67 -30z
m617 18 c37 -28 39 -49 39 -401 l0 -344 -26 -31 c-21 -26 -33 -31 -69 -31 -36
0 -48 5 -69 31 l-26 31 0 344 c0 352 2 373 39 401 21 16 91 16 112 0z m644
-13 l25 -27 0 -349 c0 -246 -3 -356 -12 -371 -18 -34 -40 -46 -85 -47 -34 0
-46 5 -67 31 l-26 31 0 348 0 348 26 31 c22 26 33 31 70 31 36 0 50 -5 69 -26z
m630 1 l25 -24 0 -359 0 -359 -26 -27 c-35 -35 -92 -36 -131 -2 l-28 24 -3
355 -3 355 27 31 c22 26 33 31 70 31 34 0 51 -6 69 -25z m-1745 -1801 c39 -24
60 -65 60 -119 0 -40 -5 -52 -33 -80 -19 -19 -46 -37 -60 -41 -70 -17 -150 33
-163 102 -20 107 102 193 196 138z m1447 -4 c87 -53 79 -187 -12 -226 -69 -29
-138 -5 -171 57 -42 83 18 189 108 189 25 0 57 -8 75 -20z"/>
</g>
</svg>
